HIERARCHY
ROOT Hips
{
  OFFSET 7.333 -26.027 -164.856
  CHANNELS 6 Xposition Yposition Zposition Zrotation Xrotation Yrotation
  JOINT LeftUpLeg
  {
    OFFSET 10.092 0.000 0.000
    CHANNELS 3 Zrotation Xrotation Yrotation
    JOINT LeftLeg
    {
      OFFSET 0.000 -38.160 -0.000
    CHANNELS 3 Zrotation Xrotation Yrotation
      JOINT LeftFoot
      {
        OFFSET -0.000 -24.040 0.000
    CHANNELS 3 Zrotation Xrotation Yrotation
        End Site
        {
          OFFSET -0.000 0.000 12.945
        }
      }
    }
  }
  JOINT RightUpLeg
  {
    OFFSET -10.092 -0.000 0.000
    CHANNELS 3 Zrotation Xrotation Yrotation
    JOINT RightLeg
    {
      OFFSET 0.000 -33.046 0.000
    CHANNELS 3 Zrotation Xrotation Yrotation
      JOINT RightFoot
      {
        OFFSET 0.000 -22.031 -0.000
    CHANNELS 3 Zrotation Xrotation Yrotation
        End Site
        {
          OFFSET 0.000 -0.000 11.863
        }
      }
    }
  }
  JOINT Spine
  {
    OFFSET -0.000 16.511 0.000
    CHANNELS 3 Zrotation Xrotation Yrotation
    JOINT LeftShoulder
    {
      OFFSET 0 16.511 0
    CHANNELS 3 Zrotation Xrotation Yrotation
      JOINT LeftArm
      {
        OFFSET 16.337 0.000 0.000
    CHANNELS 3 Zrotation Xrotation Yrotation
        JOINT LeftForeArm
        {
          OFFSET 0.000 -24.030 0.000
    CHANNELS 3 Zrotation Xrotation Yrotation
          JOINT LeftHand
          {
            OFFSET 0.000 -17.629 -0.000
    CHANNELS 3 Zrotation Xrotation Yrotation
            End Site
            {
              OFFSET 0.000 -11.753 -0.000
            }
          }
        }
      }
    }
    JOINT RightShoulder
    {
      OFFSET 0 16.511 0
    CHANNELS 3 Zrotation Xrotation Yrotation
      JOINT RightArm
      {
        OFFSET -16.337 0.000 0.000
    CHANNELS 3 Zrotation Xrotation Yrotation
        JOINT RightForeArm
        {
          OFFSET -0.000 -19.534 0.000
    CHANNELS 3 Zrotation Xrotation Yrotation
          JOINT RightHand
          {
            OFFSET 0.000 -19.514 -0.000
    CHANNELS 3 Zrotation Xrotation Yrotation
            End Site
            {
              OFFSET 0.000 -13.010 -0.000
            }
          }
        }
      }
    }
    JOINT Neck
    {
      OFFSET -0.000 16.511 0.000
    CHANNELS 3 Zrotation Xrotation Yrotation
      JOINT Head
      {
        OFFSET -0.000 12.493 -0.000
    CHANNELS 3 Zrotation Xrotation Yrotation
        End Site
        {
          OFFSET -0.000 8.328 -0.000
        }
      }
    }
  }
}
MOTION
Frames: 20
Frame Time: 0.0333333
0 0 0 -1.066660e-01 -7.732267e-01 -8.430322e+00 -5.474077e+00 1.461103e+01 6.133025e-01 9.449290e+00 -1.797266e+01 3.129330e-01 0 0 3.538489e-08 3.241410e-01 1.024478e+01 -5.316960e-01 8.287920e+00 -8.073670e+00 1.065381e+00 NaN 0 -1.080416e-07 6.896336e-08 -9.813185e-09 -4.700000e-05 0 0 0 6.276420e+01 -1.162360e+01 1.832590e+00 1.193705e+02 NaN 2.725280e+01 1.158186e-08 3.475320e-08 8.573274e-08 0 0 0 -6.881190e+01 NaN 1.810440e+01 -7.036152e+01 -1.696730e+01 2.223390e+01 -1.481203e-08 -5.351224e-08 2.732283e-08 1.945450e-01 -1.238800e+00 1.675000e-03 0 0 NaN 
0 0 0 -1.315466e-01 NaN -8.366726e+00 -4.978097e+00 1.474384e+01 7.184388e-01 8.448270e+00 NaN 2.759824e-01 0 0 4.648883e-08 1.310567e+00 9.942816e+00 -4.817609e-01 7.489886e+00 -8.200600e+00 1.174908e+00 -4.141051e-08 0 NaN 9.734247e-08 2.257743e-09 -2.300000e-05 0 0 0 6.686115e+01 -1.813679e+01 -1.111877e+00 1.205463e+02 -2.565662e+01 4.152801e+01 -1.553453e-08 3.427535e-08 -4.801647e-08 0 0 0 -6.877132e+01 -1.649936e+01 1.739312e+01 -6.934811e+01 1.309410e+01 2.459905e+01 -1.822625e-08 -8.378754e-08 8.538203e-08 -2.202600e-02 -1.106177e+00 8.620173e-05 0 0 -1.534417e-07 
0 0 0 -1.313479e-01 -4.337386e-01 -8.324854e+00 -4.944624e+00 1.470655e+01 6.988476e-01 7.897973e+00 -1.724746e+01 5.360676e-01 0 0 6.200259e-08 3.157659e+00 9.751488e+00 -5.497534e-01 7.152573e+00 -8.292801e+00 1.187723e+00 -1.011009e-08 0 NaN 3.801621e-10 -4.805852e-09 5.211564e-05 0 0 0 6.834393e+01 -2.199320e+01 -2.366801e+00 1.194005e+02 -2.749559e+01 5.840607e+01 -3.488698e-08 1.902059e-08 3.926772e-08 0 0 0 -6.694665e+01 -1.599587e+01 1.851818e+01 -6.920060e+01 1.651260e+01 2.883714e+01 -3.283556e-08 -6.653168e-09 5.827429e-08 7.021103e-02 -1.225257e+00 6.388941e-04 0 0 -2.801338e-07 
0 0 0 -1.875322e-01 -4.224765e-01 -8.323279e+00 -4.707203e+00 1.453799e+01 6.873554e-01 8.541447e+00 -1.622354e+01 1.030060e+00 0 0 NaN NaN 9.906301e+00 -6.364319e-01 8.674275e+00 -8.300717e+00 9.089160e-01 -1.044187e-08 0 -4.539543e-08 -2.322609e-08 -5.401685e-09 -2.762490e-06 0 0 0 6.788626e+01 -2.301975e+01 -2.666358e+00 1.157004e+02 -2.611880e+01 6.405826e+01 -7.786999e-09 3.206608e-08 3.089502e-08 0 0 0 -6.546030e+01 -1.308543e+01 1.917653e+01 -6.971841e+01 1.564478e+01 3.211683e+01 -2.287353e-08 -6.509734e-09 8.957389e-08 1.340681e-02 -1.231361e+00 3.219114e-04 0 0 NaN 
0 0 0 -2.705160e-01 2.073730e-01 -8.328179e+00 -4.510220e+00 1.448886e+01 5.863902e-01 8.840695e+00 -1.665838e+01 1.480420e+00 0 0 NaN 2.923425e+00 9.941486e+00 -4.568585e-01 8.326384e+00 -8.658022e+00 7.386191e-01 -2.291575e-08 0 -6.335845e-08 -9.608157e-08 -2.740121e-09 -3.565442e-07 0 0 0 6.841836e+01 -2.064933e+01 -1.902822e+00 1.114938e+02 -2.269320e+01 7.731500e+01 3.386153e-09 3.425104e-08 9.708876e-09 0 0 0 -6.552376e+01 -1.080422e+01 1.926353e+01 -7.062210e+01 1.413550e+01 3.309094e+01 -1.947189e-08 -1.553661e-08 1.142862e-08 -1.403808e-01 -1.156725e+00 1.183018e-03 0 0 NaN 
0 0 0 -5.146267e-01 NaN -8.365078e+00 NaN 1.456347e+01 5.319164e-01 NaN -1.444590e+01 1.152820e+00 0 0 2.148633e-08 2.739530e+00 NaN -4.336040e-01 8.106841e+00 NaN 1.198090e+00 -2.219761e-08 0 NaN 4.257415e-08 -8.619868e-09 -1.937262e-05 0 0 0 6.891386e+01 NaN -8.469414e-01 1.078090e+02 -1.847770e+01 9.789693e+01 1.356555e-08 NaN 5.024114e-08 0 0 0 -6.413332e+01 -9.732462e+00 2.003624e+01 -7.176961e+01 1.408736e+01 3.393575e+01 5.058466e-09 -4.987053e-08 NaN NaN -1.378139e+00 6.904810e-04 0 0 -8.011223e-08 
0 0 0 -4.370663e-01 -4.059237e-01 -8.327996e+00 -4.025095e+00 1.459673e+01 4.438280e-01 8.463231e+00 -1.463880e+01 1.306279e+00 0 0 4.385288e-08 2.807777e+00 9.233605e+00 -4.381990e-01 7.179859e+00 -9.458881e+00 8.438320e-01 NaN 0 NaN 2.015177e-07 -1.714689e-09 3.300000e-05 0 0 0 6.894828e+01 -2.367870e+01 4.841454e-01 1.009383e+02 -1.574070e+01 1.125435e+02 -5.885204e-09 3.171604e-09 5.633682e-08 0 0 0 -6.322129e+01 -9.752205e+00 2.117735e+01 -7.117745e+01 1.285342e+01 3.520630e+01 1.956340e-08 -2.155708e-08 5.415576e-09 -8.316712e-02 -1.238800e+00 1.842206e-03 0 0 -2.147730e-07 
0 0 0 -6.344010e-01 -7.042559e-01 -8.343832e+00 -3.991256e+00 1.468506e+01 5.704602e-01 7.981820e+00 -1.569162e+01 NaN 0 0 NaN 3.669660e+00 8.839686e+00 -5.316960e-01 6.662226e+00 -8.300100e+00 7.984900e-01 -2.018506e-08 0 -7.727347e-08 NaN -1.240076e-08 5.000000e-06 0 0 0 7.072129e+01 -2.334855e+01 3.076498e+00 9.050516e+01 -1.247380e+01 1.181717e+02 1.076733e-08 2.904643e-08 3.086475e-08 0 0 0 -5.881120e+01 -9.459906e+00 2.174075e+01 -6.898086e+01 1.137325e+01 3.828558e+01 -1.680480e-08 -3.253610e-08 6.547282e-08 -9.824420e-02 -1.018631e+00 3.562717e-04 0 0 NaN 
0 0 0 -6.648175e-01 -6.362390e-01 -8.341383e+00 -3.979524e+00 1.462823e+01 6.115876e-01 8.003702e+00 -1.634733e+01 1.390034e+00 0 0 4.935769e-08 3.224225e+00 9.332782e+00 -4.984580e-01 7.816197e+00 -8.305560e+00 6.714851e-01 -1.829395e-08 0 NaN NaN -5.539488e-09 -9.200000e-05 0 0 0 7.135640e+01 -1.909682e+01 6.095629e+00 8.035700e+01 -1.251010e+01 1.227263e+02 1.353001e-08 3.856463e-08 6.297699e-08 0 0 0 -5.325698e+01 -8.551991e+00 2.222728e+01 -6.936188e+01 8.067429e+00 4.050872e+01 -1.786958e-08 -4.760339e-08 4.863962e-08 -8.793855e-02 -1.234940e+00 1.388405e-03 0 0 NaN 
0 0 0 -4.979782e-01 -5.985537e-01 -8.346059e+00 -4.061961e+00 1.450921e+01 6.864166e-01 NaN -1.699900e+01 1.448137e+00 0 0 2.088773e-08 3.122455e+00 8.113378e+00 -4.877376e-01 8.869408e+00 -8.795751e+00 8.232483e-01 -1.998941e-08 0 NaN -3.979222e-08 -2.328735e-09 -2.800000e-05 0 0 0 6.907730e+01 -8.890250e+00 9.279042e+00 6.697171e+01 -1.708410e+01 1.269481e+02 1.673760e-08 4.761905e-08 3.586876e-08 0 0 0 -4.966625e+01 -7.180543e+00 2.108350e+01 -7.038286e+01 5.294070e+00 4.548750e+01 -1.748888e-08 -3.783808e-08 5.584441e-08 -1.770680e-01 -1.447818e+00 9.696677e-04 0 0 -2.367595e-08 
0 0 0 -7.269960e-01 -6.235230e-01 -8.333379e+00 -4.024565e+00 1.455836e+01 6.295185e-01 7.247917e+00 -1.740769e+01 1.747080e+00 0 0 -1.250000e-07 3.535368e+00 NaN -5.447471e-01 9.134826e+00 -7.725170e+00 7.675143e-01 -1.372807e-08 0 -6.881281e-08 1.179175e-07 4.065825e-09 8.000000e-06 0 0 0 6.415865e+01 -3.245890e+00 1.431347e+01 5.295968e+01 -2.275449e+01 1.283208e+02 1.313832e-08 NaN 5.729836e-08 0 0 0 -4.521674e+01 -6.269611e+00 1.958003e+01 -7.054485e+01 1.999694e+00 5.465890e+01 4.978894e-09 -3.937410e-08 4.456036e-08 -2.724351e-01 -1.259045e+00 2.510964e-03 0 0 -2.054941e-07 
0 0 0 -4.866238e-01 -6.415920e-01 -8.333832e+00 -4.009724e+00 1.460059e+01 6.139006e-01 6.695943e+00 -1.621956e+01 1.202770e+00 0 0 NaN 2.887032e+00 9.360461e+00 -6.597307e-01 8.483770e+00 -8.057339e+00 6.783899e-01 -1.381076e-08 0 -2.910172e-08 2.207066e-09 -4.069991e-10 -2.394118e-05 0 0 0 6.027752e+01 2.512964e+00 1.877652e+01 4.277097e+01 -2.469495e+01 1.246186e+02 5.700946e-09 6.772404e-09 8.309654e-08 0 0 0 -4.186403e+01 -6.861798e+00 1.914018e+01 -7.018592e+01 -2.226984e+00 6.930437e+01 9.713504e-09 -3.346811e-08 3.022127e-08 -2.284897e-01 -1.072580e+00 3.616525e-03 0 0 NaN 
0 0 0 -4.239877e-01 -7.073417e-01 -8.362254e+00 -3.995823e+00 1.466768e+01 6.887349e-01 7.059867e+00 -1.735339e+01 1.686870e+00 0 0 NaN 2.505297e+00 9.545727e+00 -5.667787e-01 7.909432e+00 -8.232160e+00 8.665822e-01 -1.412324e-08 0 NaN -7.741818e-08 -1.164829e-08 2.188181e-05 0 0 0 5.474798e+01 8.635261e+00 2.344287e+01 3.682826e+01 -3.087991e+01 1.210042e+02 -6.302736e-09 1.008131e-08 3.189513e-08 0 0 0 -3.944501e+01 -8.233305e+00 1.941496e+01 -6.978738e+01 -6.952992e+00 9.547331e+01 -2.357696e-08 -2.375180e-08 4.436454e-08 -3.496800e-01 -1.226576e+00 1.419050e-03 0 0 NaN 
0 0 0 -5.977837e-01 NaN -8.375496e+00 -4.048741e+00 1.472030e+01 5.291350e-01 6.511360e+00 -1.690560e+01 1.366720e+00 0 0 2.107121e-08 3.144580e+00 1.068290e+01 -4.554780e-01 7.610569e+00 -7.921360e+00 NaN -1.868772e-08 0 -7.635943e-08 2.913815e-08 -1.230207e-08 NaN 0 0 0 4.994577e+01 1.129636e+01 2.530680e+01 3.034915e+01 NaN 1.107728e+02 8.811543e-09 3.331101e-08 NaN 0 0 0 -3.993221e+01 -9.209509e+00 2.034150e+01 -7.018014e+01 -1.087476e+01 1.338740e+02 -1.809223e-08 -5.592692e-08 7.800924e-08 -2.447460e-01 -1.233890e+00 -1.240000e-03 0 0 -8.700459e-08 
0 0 0 -6.887911e-01 -5.644068e-01 -8.333296e+00 -4.028166e+00 1.457607e+01 4.979967e-01 7.108241e+00 -1.594037e+01 1.270608e+00 0 0 3.085063e-08 2.208500e+00 1.159112e+01 -5.316779e-01 8.192328e+00 -8.998490e+00 7.507488e-01 -1.655084e-08 0 NaN 1.918109e-08 -1.027138e-08 -1.891380e-05 0 0 0 4.521836e+01 1.386931e+01 2.710670e+01 2.646200e+01 -2.868392e+01 8.788700e+01 -3.971641e-09 3.050883e-08 -1.092184e-08 0 0 0 -4.226484e+01 -1.193239e+01 2.162308e+01 -7.037143e+01 -1.109596e+01 1.632500e+02 -2.873870e-08 -5.710954e-08 -1.077854e-08 -1.467836e-01 -1.191194e+00 -9.669858e-04 0 0 -1.828565e-07 
0 0 0 -6.221329e-01 -6.552478e-01 -8.319488e+00 -3.998069e+00 1.448864e+01 5.191075e-01 6.511360e+00 -1.719361e+01 1.277140e+00 0 0 5.576403e-08 2.679056e+00 1.176937e+01 -5.426952e-01 7.600955e+00 -9.348177e+00 6.492028e-01 -8.176427e-09 0 NaN -5.091868e-08 -6.545746e-09 1.619742e-05 0 0 0 4.206791e+01 1.525235e+01 2.892082e+01 3.076521e+01 -2.658287e+01 6.741430e+01 -1.665232e-08 1.342973e-08 3.966653e-08 0 0 0 -4.575178e+01 -1.512163e+01 2.268795e+01 -7.114069e+01 -8.913276e+00 -2.409976e+01 -1.496808e-08 -8.772664e-09 9.161613e-09 -2.441479e-01 -1.255230e+00 -8.695816e-04 0 0 NaN 
0 0 0 -3.571308e-01 -2.089832e-01 -8.385110e+00 -3.905214e+00 1.459655e+01 5.753712e-01 7.242159e+00 -1.568080e+01 1.291947e+00 0 0 NaN 2.336342e+00 1.255831e+01 -6.058874e-01 7.195793e+00 -8.392357e+00 8.534777e-01 -1.026292e-08 0 -5.074730e-08 3.614011e-08 -3.712932e-09 NaN 0 0 0 3.935756e+01 1.567313e+01 2.854383e+01 3.363526e+01 -2.112440e+01 4.592140e+01 6.392538e-09 4.018590e-08 7.597516e-08 0 0 0 -4.964834e+01 -1.924407e+01 2.212227e+01 -7.142986e+01 -7.609093e+00 NaN -8.318822e-09 -4.956206e-08 5.034520e-08 -2.208385e-01 -1.177855e+00 -1.091155e-03 0 0 NaN 
0 0 0 -8.599577e-02 NaN -8.333093e+00 -3.849232e+00 1.463928e+01 6.523144e-01 5.642893e+00 -1.723782e+01 1.427214e+00 0 0 NaN 3.342310e+00 1.258799e+01 -4.378238e-01 8.866217e+00 NaN 7.867279e-01 -2.160103e-08 0 NaN 4.536499e-08 6.910240e-11 2.408903e-05 0 0 0 3.723623e+01 1.450808e+01 2.593951e+01 3.950268e+01 -1.725430e+01 4.045321e+01 9.952113e-09 3.737347e-08 4.256380e-08 0 0 0 -5.369403e+01 -2.256638e+01 2.345750e+01 -7.010129e+01 -4.058989e+00 NaN -8.608850e-09 -4.082633e-08 6.282232e-08 -2.054485e-01 -1.465309e+00 -1.431893e-03 0 0 -1.191432e-07 
0 0 0 -1.756257e-01 -6.054418e-01 -8.319823e+00 -4.052262e+00 1.459659e+01 6.344757e-01 2.570430e+00 -1.542435e+01 1.501080e+00 0 0 2.906145e-08 3.669140e+00 1.211149e+01 -5.735060e-01 8.188389e+00 -8.487746e+00 6.373302e-01 -2.005578e-08 0 NaN 4.597031e-08 -1.541548e-08 -3.082344e-05 0 0 0 3.640795e+01 1.294461e+01 2.361168e+01 5.155642e+01 -1.542787e+01 3.603427e+01 2.309842e-09 NaN 7.845861e-08 0 0 0 -5.643178e+01 -2.609628e+01 2.441062e+01 -6.927977e+01 2.053478e+00 2.103608e+01 -8.517941e-09 -5.703798e-08 1.431133e-08 -1.633010e-01 -1.212090e+00 -1.288991e-03 0 0 NaN 
0 0 0 -2.884197e-02 -6.747458e-01 -8.439331e+00 -3.933027e+00 1.447036e+01 6.833660e-01 4.966520e+00 -1.768734e+01 1.513189e+00 0 0 3.323452e-08 3.654507e+00 1.140726e+01 -5.231406e-01 7.727373e+00 -8.497035e+00 7.228790e-01 -1.842370e-08 0 -1.312101e-07 3.466746e-08 3.084104e-11 NaN 0 0 0 3.604353e+01 1.020835e+01 2.045693e+01 6.554402e+01 -1.392397e+01 3.716523e+01 8.614114e-09 9.269748e-09 -2.439561e-08 0 0 0 -5.937674e+01 -3.189674e+01 2.582418e+01 -6.977510e+01 7.417000e+00 2.418470e+01 -2.502414e-08 NaN 2.915248e-08 -8.095962e-02 -9.398710e-01 -1.001719e-03 0 0 NaN 
